<mxfile host="app.diagrams.net" modified="2023-05-28T00:38:11.021Z" agent="Mozilla/5.0 (Windows NT 10.0; Win64; x64) AppleWebKit/537.36 (KHTML, like Gecko) Chrome/113.0.0.0 Safari/537.36" etag="Ndkyd4E5KktSB16jrg7d" version="21.3.4" type="device" pages="2">
  <diagram name="Page-1" id="f7xhmTpkbn1lKMiFZ_HO">
    <mxGraphModel dx="1434" dy="1819" grid="1" gridSize="10" guides="1" tooltips="1" connect="1" arrows="1" fold="1" page="1" pageScale="1" pageWidth="850" pageHeight="1100" math="0" shadow="0">
      <root>
        <mxCell id="0" />
        <mxCell id="1" parent="0" />
        <mxCell id="obl9XP4yQmIYvm-z3Ed6-6" style="edgeStyle=orthogonalEdgeStyle;rounded=0;orthogonalLoop=1;jettySize=auto;html=1;exitX=1;exitY=0.25;exitDx=0;exitDy=0;entryX=0;entryY=0.25;entryDx=0;entryDy=0;" parent="1" source="obl9XP4yQmIYvm-z3Ed6-3" target="obl9XP4yQmIYvm-z3Ed6-5" edge="1">
          <mxGeometry relative="1" as="geometry" />
        </mxCell>
        <mxCell id="obl9XP4yQmIYvm-z3Ed6-3" value="" style="rounded=0;whiteSpace=wrap;html=1;" parent="1" vertex="1">
          <mxGeometry x="80" y="230" width="40" height="210" as="geometry" />
        </mxCell>
        <mxCell id="obl9XP4yQmIYvm-z3Ed6-9" style="edgeStyle=orthogonalEdgeStyle;rounded=0;orthogonalLoop=1;jettySize=auto;html=1;exitX=0.5;exitY=0;exitDx=0;exitDy=0;" parent="1" source="obl9XP4yQmIYvm-z3Ed6-5" target="obl9XP4yQmIYvm-z3Ed6-8" edge="1">
          <mxGeometry relative="1" as="geometry" />
        </mxCell>
        <mxCell id="obl9XP4yQmIYvm-z3Ed6-24" style="edgeStyle=orthogonalEdgeStyle;rounded=0;orthogonalLoop=1;jettySize=auto;html=1;exitX=1;exitY=0.25;exitDx=0;exitDy=0;entryX=0;entryY=0.5;entryDx=0;entryDy=0;" parent="1" source="obl9XP4yQmIYvm-z3Ed6-5" target="obl9XP4yQmIYvm-z3Ed6-15" edge="1">
          <mxGeometry relative="1" as="geometry">
            <Array as="points">
              <mxPoint x="290" y="295" />
            </Array>
          </mxGeometry>
        </mxCell>
        <mxCell id="obl9XP4yQmIYvm-z3Ed6-26" style="edgeStyle=orthogonalEdgeStyle;rounded=0;orthogonalLoop=1;jettySize=auto;html=1;exitX=1;exitY=0.5;exitDx=0;exitDy=0;entryX=0;entryY=0.5;entryDx=0;entryDy=0;" parent="1" source="obl9XP4yQmIYvm-z3Ed6-5" target="obl9XP4yQmIYvm-z3Ed6-16" edge="1">
          <mxGeometry relative="1" as="geometry">
            <Array as="points">
              <mxPoint x="290" y="355" />
            </Array>
          </mxGeometry>
        </mxCell>
        <mxCell id="obl9XP4yQmIYvm-z3Ed6-31" style="edgeStyle=orthogonalEdgeStyle;rounded=0;orthogonalLoop=1;jettySize=auto;html=1;exitX=1;exitY=1;exitDx=0;exitDy=0;entryX=0.75;entryY=1;entryDx=0;entryDy=0;" parent="1" source="obl9XP4yQmIYvm-z3Ed6-5" edge="1">
          <mxGeometry relative="1" as="geometry">
            <mxPoint x="350" y="420" as="targetPoint" />
            <Array as="points">
              <mxPoint x="290" y="420" />
            </Array>
          </mxGeometry>
        </mxCell>
        <mxCell id="obl9XP4yQmIYvm-z3Ed6-5" value="" style="rounded=0;whiteSpace=wrap;html=1;" parent="1" vertex="1">
          <mxGeometry x="250" y="230" width="40" height="210" as="geometry" />
        </mxCell>
        <mxCell id="obl9XP4yQmIYvm-z3Ed6-8" value="" style="ellipse;whiteSpace=wrap;html=1;" parent="1" vertex="1">
          <mxGeometry x="340" width="120" height="240" as="geometry" />
        </mxCell>
        <mxCell id="obl9XP4yQmIYvm-z3Ed6-10" value="&lt;b&gt;12-15&lt;/b&gt;" style="text;html=1;strokeColor=none;fillColor=none;align=center;verticalAlign=middle;whiteSpace=wrap;rounded=0;" parent="1" vertex="1">
          <mxGeometry x="270" y="130" width="60" height="30" as="geometry" />
        </mxCell>
        <mxCell id="obl9XP4yQmIYvm-z3Ed6-12" value="" style="rounded=0;whiteSpace=wrap;html=1;" parent="1" vertex="1">
          <mxGeometry x="400" y="270" width="230" height="200" as="geometry" />
        </mxCell>
        <mxCell id="obl9XP4yQmIYvm-z3Ed6-13" value="&lt;b&gt;RegWrite&lt;/b&gt;" style="text;html=1;strokeColor=none;fillColor=none;align=center;verticalAlign=middle;whiteSpace=wrap;rounded=0;" parent="1" vertex="1">
          <mxGeometry x="500" y="270" width="60" height="30" as="geometry" />
        </mxCell>
        <mxCell id="obl9XP4yQmIYvm-z3Ed6-14" value="&lt;b&gt;Write &lt;br&gt;Data&lt;/b&gt;" style="text;html=1;strokeColor=none;fillColor=none;align=center;verticalAlign=middle;whiteSpace=wrap;rounded=0;" parent="1" vertex="1">
          <mxGeometry x="402" y="440" width="72" height="30" as="geometry" />
        </mxCell>
        <mxCell id="obl9XP4yQmIYvm-z3Ed6-15" value="&lt;b&gt;Read &lt;br&gt;Register 1&lt;/b&gt;" style="text;html=1;strokeColor=none;fillColor=none;align=center;verticalAlign=middle;whiteSpace=wrap;rounded=0;" parent="1" vertex="1">
          <mxGeometry x="400" y="280" width="100" height="30" as="geometry" />
        </mxCell>
        <mxCell id="obl9XP4yQmIYvm-z3Ed6-16" value="&lt;b&gt;Read &lt;br&gt;Register 2&lt;/b&gt;" style="text;html=1;strokeColor=none;fillColor=none;align=center;verticalAlign=middle;whiteSpace=wrap;rounded=0;" parent="1" vertex="1">
          <mxGeometry x="398" y="340" width="110" height="30" as="geometry" />
        </mxCell>
        <mxCell id="obl9XP4yQmIYvm-z3Ed6-18" value="&lt;b&gt;Write &lt;br&gt;Register&lt;/b&gt;" style="text;html=1;strokeColor=none;fillColor=none;align=center;verticalAlign=middle;whiteSpace=wrap;rounded=0;" parent="1" vertex="1">
          <mxGeometry x="398" y="390" width="102" height="30" as="geometry" />
        </mxCell>
        <mxCell id="obl9XP4yQmIYvm-z3Ed6-25" value="&lt;b&gt;8-11&lt;/b&gt;" style="text;html=1;align=center;verticalAlign=middle;resizable=0;points=[];autosize=1;strokeColor=none;fillColor=none;" parent="1" vertex="1">
          <mxGeometry x="330" y="270" width="50" height="30" as="geometry" />
        </mxCell>
        <mxCell id="obl9XP4yQmIYvm-z3Ed6-27" value="&lt;b&gt;4-7&lt;/b&gt;" style="text;html=1;align=center;verticalAlign=middle;resizable=0;points=[];autosize=1;strokeColor=none;fillColor=none;" parent="1" vertex="1">
          <mxGeometry x="340" y="330" width="40" height="30" as="geometry" />
        </mxCell>
        <mxCell id="obl9XP4yQmIYvm-z3Ed6-30" style="edgeStyle=orthogonalEdgeStyle;rounded=0;orthogonalLoop=1;jettySize=auto;html=1;exitX=0.5;exitY=0;exitDx=0;exitDy=0;entryX=0;entryY=0.5;entryDx=0;entryDy=0;" parent="1" target="obl9XP4yQmIYvm-z3Ed6-18" edge="1">
          <mxGeometry relative="1" as="geometry">
            <mxPoint x="380" y="405" as="sourcePoint" />
          </mxGeometry>
        </mxCell>
        <mxCell id="obl9XP4yQmIYvm-z3Ed6-37" value="" style="edgeStyle=none;orthogonalLoop=1;jettySize=auto;html=1;rounded=0;" parent="1" edge="1">
          <mxGeometry width="100" relative="1" as="geometry">
            <mxPoint x="310" y="360" as="sourcePoint" />
            <mxPoint x="360" y="375" as="targetPoint" />
            <Array as="points">
              <mxPoint x="310" y="375" />
            </Array>
          </mxGeometry>
        </mxCell>
        <mxCell id="ntWYbjyDZt9TWFbMhZnc-4" value="&lt;b&gt;0-3&lt;/b&gt;" style="text;html=1;align=center;verticalAlign=middle;resizable=0;points=[];autosize=1;strokeColor=none;fillColor=none;" parent="1" vertex="1">
          <mxGeometry x="290" y="418" width="40" height="30" as="geometry" />
        </mxCell>
        <mxCell id="ntWYbjyDZt9TWFbMhZnc-6" value="" style="ellipse;whiteSpace=wrap;html=1;" parent="1" vertex="1">
          <mxGeometry x="350" y="360" width="30" height="100" as="geometry" />
        </mxCell>
        <mxCell id="ntWYbjyDZt9TWFbMhZnc-7" value="&lt;b&gt;0&lt;/b&gt;" style="text;html=1;align=center;verticalAlign=middle;resizable=0;points=[];autosize=1;strokeColor=none;fillColor=none;" parent="1" vertex="1">
          <mxGeometry x="350" y="360" width="30" height="30" as="geometry" />
        </mxCell>
        <mxCell id="ntWYbjyDZt9TWFbMhZnc-8" value="&lt;b&gt;1&lt;/b&gt;" style="text;html=1;align=center;verticalAlign=middle;resizable=0;points=[];autosize=1;strokeColor=none;fillColor=none;" parent="1" vertex="1">
          <mxGeometry x="350" y="410" width="30" height="30" as="geometry" />
        </mxCell>
        <mxCell id="ntWYbjyDZt9TWFbMhZnc-10" value="&lt;b&gt;MUX&lt;/b&gt;" style="text;html=1;align=center;verticalAlign=middle;resizable=0;points=[];autosize=1;strokeColor=none;fillColor=none;" parent="1" vertex="1">
          <mxGeometry x="340" y="388" width="50" height="30" as="geometry" />
        </mxCell>
        <mxCell id="ntWYbjyDZt9TWFbMhZnc-11" value="&lt;b&gt;Read&lt;br&gt;&amp;nbsp;Data 1&lt;/b&gt;" style="text;html=1;align=center;verticalAlign=middle;resizable=0;points=[];autosize=1;strokeColor=none;fillColor=none;" parent="1" vertex="1">
          <mxGeometry x="570" y="280" width="60" height="40" as="geometry" />
        </mxCell>
        <mxCell id="ntWYbjyDZt9TWFbMhZnc-14" value="&lt;b style=&quot;border-color: var(--border-color);&quot;&gt;Read &lt;br&gt;Data 2&lt;/b&gt;" style="text;html=1;align=center;verticalAlign=middle;resizable=0;points=[];autosize=1;strokeColor=none;fillColor=none;" parent="1" vertex="1">
          <mxGeometry x="571" y="340" width="60" height="40" as="geometry" />
        </mxCell>
        <mxCell id="ntWYbjyDZt9TWFbMhZnc-15" value="&lt;b&gt;Register &lt;br&gt;File&lt;/b&gt;" style="text;html=1;align=center;verticalAlign=middle;resizable=0;points=[];autosize=1;strokeColor=#82b366;fillColor=#d5e8d4;" parent="1" vertex="1">
          <mxGeometry x="490" y="380" width="70" height="40" as="geometry" />
        </mxCell>
        <mxCell id="ntWYbjyDZt9TWFbMhZnc-17" value="" style="ellipse;whiteSpace=wrap;html=1;" parent="1" vertex="1">
          <mxGeometry x="720" y="350" width="30" height="100" as="geometry" />
        </mxCell>
        <mxCell id="ntWYbjyDZt9TWFbMhZnc-18" value="&lt;b&gt;0&lt;/b&gt;" style="text;html=1;align=center;verticalAlign=middle;resizable=0;points=[];autosize=1;strokeColor=none;fillColor=none;" parent="1" vertex="1">
          <mxGeometry x="720" y="360" width="30" height="30" as="geometry" />
        </mxCell>
        <mxCell id="ntWYbjyDZt9TWFbMhZnc-19" value="&lt;b&gt;1&lt;/b&gt;" style="text;html=1;align=center;verticalAlign=middle;resizable=0;points=[];autosize=1;strokeColor=none;fillColor=none;" parent="1" vertex="1">
          <mxGeometry x="720" y="417" width="30" height="30" as="geometry" />
        </mxCell>
        <mxCell id="ntWYbjyDZt9TWFbMhZnc-20" value="&lt;b&gt;MUX&lt;/b&gt;" style="text;html=1;align=center;verticalAlign=middle;resizable=0;points=[];autosize=1;strokeColor=none;fillColor=none;" parent="1" vertex="1">
          <mxGeometry x="710" y="387" width="50" height="30" as="geometry" />
        </mxCell>
        <mxCell id="ntWYbjyDZt9TWFbMhZnc-22" value="" style="edgeStyle=none;orthogonalLoop=1;jettySize=auto;html=1;rounded=0;" parent="1" edge="1">
          <mxGeometry width="100" relative="1" as="geometry">
            <mxPoint x="630" y="380" as="sourcePoint" />
            <mxPoint x="720" y="380" as="targetPoint" />
            <Array as="points" />
          </mxGeometry>
        </mxCell>
        <mxCell id="ntWYbjyDZt9TWFbMhZnc-24" value="" style="edgeStyle=none;orthogonalLoop=1;jettySize=auto;html=1;rounded=0;exitX=1.073;exitY=0.602;exitDx=0;exitDy=0;exitPerimeter=0;entryX=0;entryY=0.25;entryDx=0;entryDy=0;" parent="1" source="ntWYbjyDZt9TWFbMhZnc-11" target="ntWYbjyDZt9TWFbMhZnc-25" edge="1">
          <mxGeometry width="100" relative="1" as="geometry">
            <mxPoint x="660" y="230" as="sourcePoint" />
            <mxPoint x="780" y="300" as="targetPoint" />
            <Array as="points">
              <mxPoint x="650" y="360" />
            </Array>
          </mxGeometry>
        </mxCell>
        <mxCell id="ntWYbjyDZt9TWFbMhZnc-34" style="edgeStyle=orthogonalEdgeStyle;rounded=0;orthogonalLoop=1;jettySize=auto;html=1;exitX=1;exitY=0.5;exitDx=0;exitDy=0;entryX=0.021;entryY=0.478;entryDx=0;entryDy=0;entryPerimeter=0;" parent="1" source="ntWYbjyDZt9TWFbMhZnc-25" target="ntWYbjyDZt9TWFbMhZnc-29" edge="1">
          <mxGeometry relative="1" as="geometry" />
        </mxCell>
        <mxCell id="ntWYbjyDZt9TWFbMhZnc-25" value="" style="shape=step;perimeter=stepPerimeter;whiteSpace=wrap;html=1;fixedSize=1;" parent="1" vertex="1">
          <mxGeometry x="790" y="300" width="70" height="135" as="geometry" />
        </mxCell>
        <mxCell id="ntWYbjyDZt9TWFbMhZnc-26" value="" style="edgeStyle=none;orthogonalLoop=1;jettySize=auto;html=1;rounded=0;entryX=0.174;entryY=0.758;entryDx=0;entryDy=0;entryPerimeter=0;" parent="1" target="ntWYbjyDZt9TWFbMhZnc-25" edge="1">
          <mxGeometry width="100" relative="1" as="geometry">
            <mxPoint x="750" y="402" as="sourcePoint" />
            <mxPoint x="850" y="530" as="targetPoint" />
            <Array as="points" />
          </mxGeometry>
        </mxCell>
        <mxCell id="ntWYbjyDZt9TWFbMhZnc-27" value="" style="edgeStyle=none;orthogonalLoop=1;jettySize=auto;html=1;rounded=0;" parent="1" edge="1">
          <mxGeometry width="100" relative="1" as="geometry">
            <mxPoint x="330" y="420" as="sourcePoint" />
            <mxPoint x="730" y="440" as="targetPoint" />
            <Array as="points">
              <mxPoint x="330" y="560" />
              <mxPoint x="640" y="560" />
              <mxPoint x="640" y="440" />
            </Array>
          </mxGeometry>
        </mxCell>
        <mxCell id="ntWYbjyDZt9TWFbMhZnc-28" value="&lt;b&gt;&lt;br&gt;&lt;/b&gt;" style="rounded=0;whiteSpace=wrap;html=1;" parent="1" vertex="1">
          <mxGeometry x="940" y="270" width="230" height="180" as="geometry" />
        </mxCell>
        <mxCell id="ntWYbjyDZt9TWFbMhZnc-29" value="&lt;b&gt;Address&lt;br&gt;&lt;/b&gt;" style="text;html=1;align=center;verticalAlign=middle;resizable=0;points=[];autosize=1;strokeColor=none;fillColor=none;" parent="1" vertex="1">
          <mxGeometry x="940" y="290" width="70" height="30" as="geometry" />
        </mxCell>
        <mxCell id="ntWYbjyDZt9TWFbMhZnc-30" value="&lt;b&gt;Write&lt;br&gt;Data&lt;/b&gt;" style="text;html=1;align=center;verticalAlign=middle;resizable=0;points=[];autosize=1;strokeColor=none;fillColor=none;" parent="1" vertex="1">
          <mxGeometry x="940" y="390" width="50" height="40" as="geometry" />
        </mxCell>
        <mxCell id="ntWYbjyDZt9TWFbMhZnc-31" value="&lt;b&gt;Read&lt;br&gt;&amp;nbsp;Data&lt;/b&gt;" style="text;html=1;align=center;verticalAlign=middle;resizable=0;points=[];autosize=1;strokeColor=none;fillColor=none;" parent="1" vertex="1">
          <mxGeometry x="1120" y="300" width="50" height="40" as="geometry" />
        </mxCell>
        <mxCell id="ntWYbjyDZt9TWFbMhZnc-32" value="&lt;b&gt;MemRead&lt;/b&gt;" style="text;html=1;align=center;verticalAlign=middle;resizable=0;points=[];autosize=1;strokeColor=none;fillColor=none;" parent="1" vertex="1">
          <mxGeometry x="1030" y="270" width="80" height="30" as="geometry" />
        </mxCell>
        <mxCell id="ntWYbjyDZt9TWFbMhZnc-33" value="&lt;b&gt;MemWrite&lt;/b&gt;" style="text;html=1;align=center;verticalAlign=middle;resizable=0;points=[];autosize=1;strokeColor=none;fillColor=none;" parent="1" vertex="1">
          <mxGeometry x="1020" y="425" width="80" height="30" as="geometry" />
        </mxCell>
        <mxCell id="ntWYbjyDZt9TWFbMhZnc-37" value="" style="edgeStyle=none;orthogonalLoop=1;jettySize=auto;html=1;rounded=0;entryX=-0.011;entryY=0.536;entryDx=0;entryDy=0;entryPerimeter=0;" parent="1" target="ntWYbjyDZt9TWFbMhZnc-30" edge="1">
          <mxGeometry width="100" relative="1" as="geometry">
            <mxPoint x="680" y="380" as="sourcePoint" />
            <mxPoint x="810" y="600" as="targetPoint" />
            <Array as="points">
              <mxPoint x="680" y="560" />
              <mxPoint x="790" y="560" />
              <mxPoint x="900" y="560" />
              <mxPoint x="900" y="411" />
            </Array>
          </mxGeometry>
        </mxCell>
        <mxCell id="ntWYbjyDZt9TWFbMhZnc-38" value="" style="ellipse;whiteSpace=wrap;html=1;" parent="1" vertex="1">
          <mxGeometry x="1250" y="290" width="30" height="100" as="geometry" />
        </mxCell>
        <mxCell id="ntWYbjyDZt9TWFbMhZnc-39" value="&lt;b&gt;0&lt;/b&gt;" style="text;html=1;align=center;verticalAlign=middle;resizable=0;points=[];autosize=1;strokeColor=none;fillColor=none;" parent="1" vertex="1">
          <mxGeometry x="1250" y="300" width="30" height="30" as="geometry" />
        </mxCell>
        <mxCell id="ntWYbjyDZt9TWFbMhZnc-40" value="&lt;b&gt;1&lt;/b&gt;" style="text;html=1;align=center;verticalAlign=middle;resizable=0;points=[];autosize=1;strokeColor=none;fillColor=none;" parent="1" vertex="1">
          <mxGeometry x="1250" y="357" width="30" height="30" as="geometry" />
        </mxCell>
        <mxCell id="ntWYbjyDZt9TWFbMhZnc-41" value="&lt;b&gt;MUX&lt;/b&gt;" style="text;html=1;align=center;verticalAlign=middle;resizable=0;points=[];autosize=1;strokeColor=none;fillColor=none;" parent="1" vertex="1">
          <mxGeometry x="1240" y="327" width="50" height="30" as="geometry" />
        </mxCell>
        <mxCell id="ntWYbjyDZt9TWFbMhZnc-42" value="" style="edgeStyle=none;orthogonalLoop=1;jettySize=auto;html=1;rounded=0;exitX=0.995;exitY=0.573;exitDx=0;exitDy=0;exitPerimeter=0;" parent="1" source="ntWYbjyDZt9TWFbMhZnc-28" target="ntWYbjyDZt9TWFbMhZnc-40" edge="1">
          <mxGeometry width="100" relative="1" as="geometry">
            <mxPoint x="1180" y="520" as="sourcePoint" />
            <mxPoint x="1280" y="520" as="targetPoint" />
            <Array as="points" />
          </mxGeometry>
        </mxCell>
        <mxCell id="ntWYbjyDZt9TWFbMhZnc-43" value="" style="edgeStyle=none;orthogonalLoop=1;jettySize=auto;html=1;rounded=0;entryX=-0.011;entryY=0.337;entryDx=0;entryDy=0;entryPerimeter=0;" parent="1" target="ntWYbjyDZt9TWFbMhZnc-39" edge="1">
          <mxGeometry width="100" relative="1" as="geometry">
            <mxPoint x="870" y="370" as="sourcePoint" />
            <mxPoint x="1240" y="200" as="targetPoint" />
            <Array as="points">
              <mxPoint x="870" y="230" />
              <mxPoint x="1190" y="230" />
              <mxPoint x="1190" y="310" />
            </Array>
          </mxGeometry>
        </mxCell>
        <mxCell id="ntWYbjyDZt9TWFbMhZnc-45" value="" style="edgeStyle=none;orthogonalLoop=1;jettySize=auto;html=1;rounded=0;entryX=0.5;entryY=1;entryDx=0;entryDy=0;" parent="1" target="obl9XP4yQmIYvm-z3Ed6-14" edge="1">
          <mxGeometry width="100" relative="1" as="geometry">
            <mxPoint x="1280" y="342" as="sourcePoint" />
            <mxPoint x="1060" y="560" as="targetPoint" />
            <Array as="points">
              <mxPoint x="1330" y="342" />
              <mxPoint x="1330" y="590" />
              <mxPoint x="880" y="590" />
              <mxPoint x="440" y="590" />
            </Array>
          </mxGeometry>
        </mxCell>
        <mxCell id="8mimewBvu1z7pcnI_ByZ-1" value="&lt;b&gt;&lt;br&gt;&lt;/b&gt;" style="shape=step;perimeter=stepPerimeter;whiteSpace=wrap;html=1;fixedSize=1;" parent="1" vertex="1">
          <mxGeometry x="250" y="-80" width="70" height="95" as="geometry" />
        </mxCell>
        <mxCell id="8mimewBvu1z7pcnI_ByZ-2" value="&lt;b&gt;ADDER&lt;/b&gt;" style="text;html=1;align=center;verticalAlign=middle;resizable=0;points=[];autosize=1;strokeColor=none;fillColor=none;" parent="1" vertex="1">
          <mxGeometry x="260" y="-47.5" width="70" height="30" as="geometry" />
        </mxCell>
        <mxCell id="8mimewBvu1z7pcnI_ByZ-3" value="" style="edgeStyle=none;orthogonalLoop=1;jettySize=auto;html=1;rounded=0;entryX=0.103;entryY=0.213;entryDx=0;entryDy=0;entryPerimeter=0;" parent="1" target="8mimewBvu1z7pcnI_ByZ-1" edge="1">
          <mxGeometry width="100" relative="1" as="geometry">
            <mxPoint x="180" y="280" as="sourcePoint" />
            <mxPoint x="251" y="-66" as="targetPoint" />
            <Array as="points">
              <mxPoint x="180" y="-60" />
            </Array>
          </mxGeometry>
        </mxCell>
        <mxCell id="8mimewBvu1z7pcnI_ByZ-11" style="edgeStyle=orthogonalEdgeStyle;rounded=0;orthogonalLoop=1;jettySize=auto;html=1;exitX=0;exitY=0.5;exitDx=0;exitDy=0;" parent="1" source="8mimewBvu1z7pcnI_ByZ-4" target="8mimewBvu1z7pcnI_ByZ-1" edge="1">
          <mxGeometry relative="1" as="geometry">
            <mxPoint x="230" as="targetPoint" />
            <Array as="points">
              <mxPoint x="140" y="550" />
              <mxPoint x="140" />
            </Array>
          </mxGeometry>
        </mxCell>
        <mxCell id="8mimewBvu1z7pcnI_ByZ-4" value="&lt;b&gt;sign extend&lt;br&gt;&lt;/b&gt;" style="ellipse;whiteSpace=wrap;html=1;" parent="1" vertex="1">
          <mxGeometry x="190" y="525" width="90" height="50" as="geometry" />
        </mxCell>
        <mxCell id="8mimewBvu1z7pcnI_ByZ-5" value="" style="edgeStyle=none;orthogonalLoop=1;jettySize=auto;html=1;rounded=0;entryX=1;entryY=0.5;entryDx=0;entryDy=0;" parent="1" target="8mimewBvu1z7pcnI_ByZ-4" edge="1">
          <mxGeometry width="100" relative="1" as="geometry">
            <mxPoint x="330" y="550" as="sourcePoint" />
            <mxPoint x="340" y="605" as="targetPoint" />
            <Array as="points" />
          </mxGeometry>
        </mxCell>
        <mxCell id="8mimewBvu1z7pcnI_ByZ-7" value="" style="endArrow=none;html=1;rounded=0;" parent="1" edge="1">
          <mxGeometry width="50" height="50" relative="1" as="geometry">
            <mxPoint x="310" y="540" as="sourcePoint" />
            <mxPoint x="300" y="560" as="targetPoint" />
          </mxGeometry>
        </mxCell>
        <mxCell id="8mimewBvu1z7pcnI_ByZ-9" value="&lt;b&gt;4&lt;/b&gt;" style="text;html=1;align=center;verticalAlign=middle;resizable=0;points=[];autosize=1;strokeColor=none;fillColor=none;" parent="1" vertex="1">
          <mxGeometry x="290" y="560" width="30" height="30" as="geometry" />
        </mxCell>
        <mxCell id="8mimewBvu1z7pcnI_ByZ-13" value="" style="endArrow=none;html=1;rounded=0;" parent="1" edge="1">
          <mxGeometry width="50" height="50" relative="1" as="geometry">
            <mxPoint x="170" y="530" as="sourcePoint" />
            <mxPoint x="160" y="560" as="targetPoint" />
          </mxGeometry>
        </mxCell>
        <mxCell id="8mimewBvu1z7pcnI_ByZ-14" value="&lt;b&gt;8&lt;/b&gt;" style="text;html=1;align=center;verticalAlign=middle;resizable=0;points=[];autosize=1;strokeColor=none;fillColor=none;" parent="1" vertex="1">
          <mxGeometry x="150" y="560" width="30" height="30" as="geometry" />
        </mxCell>
        <mxCell id="8mimewBvu1z7pcnI_ByZ-15" value="" style="edgeStyle=none;orthogonalLoop=1;jettySize=auto;html=1;rounded=0;" parent="1" edge="1">
          <mxGeometry width="100" relative="1" as="geometry">
            <mxPoint x="320" y="-32" as="sourcePoint" />
            <mxPoint x="593" y="-34" as="targetPoint" />
            <Array as="points" />
          </mxGeometry>
        </mxCell>
        <mxCell id="8mimewBvu1z7pcnI_ByZ-16" value="&lt;b&gt;Branch Address&lt;/b&gt;" style="text;html=1;align=center;verticalAlign=middle;resizable=0;points=[];autosize=1;strokeColor=none;fillColor=none;" parent="1" vertex="1">
          <mxGeometry x="330" y="-60" width="120" height="30" as="geometry" />
        </mxCell>
        <mxCell id="8mimewBvu1z7pcnI_ByZ-17" value="&lt;b&gt;&lt;br&gt;&lt;/b&gt;" style="shape=step;perimeter=stepPerimeter;whiteSpace=wrap;html=1;fixedSize=1;" parent="1" vertex="1">
          <mxGeometry x="245" y="-190" width="70" height="95" as="geometry" />
        </mxCell>
        <mxCell id="8mimewBvu1z7pcnI_ByZ-18" value="&lt;b&gt;ADDER&lt;/b&gt;" style="text;html=1;align=center;verticalAlign=middle;resizable=0;points=[];autosize=1;strokeColor=none;fillColor=none;" parent="1" vertex="1">
          <mxGeometry x="255" y="-157.5" width="70" height="30" as="geometry" />
        </mxCell>
        <mxCell id="8mimewBvu1z7pcnI_ByZ-22" value="" style="edgeStyle=none;orthogonalLoop=1;jettySize=auto;html=1;rounded=0;entryX=0.13;entryY=0.825;entryDx=0;entryDy=0;entryPerimeter=0;" parent="1" target="8mimewBvu1z7pcnI_ByZ-17" edge="1">
          <mxGeometry width="100" relative="1" as="geometry">
            <mxPoint x="180" y="-60" as="sourcePoint" />
            <mxPoint x="570" y="-150" as="targetPoint" />
            <Array as="points">
              <mxPoint x="180" y="-112" />
            </Array>
          </mxGeometry>
        </mxCell>
        <mxCell id="8mimewBvu1z7pcnI_ByZ-24" value="" style="edgeStyle=none;orthogonalLoop=1;jettySize=auto;html=1;rounded=0;entryX=0.5;entryY=0;entryDx=0;entryDy=0;" parent="1" target="8mimewBvu1z7pcnI_ByZ-27" edge="1">
          <mxGeometry width="100" relative="1" as="geometry">
            <mxPoint x="310" y="-140" as="sourcePoint" />
            <mxPoint x="560" y="-140" as="targetPoint" />
            <Array as="points">
              <mxPoint x="606" y="-140" />
            </Array>
          </mxGeometry>
        </mxCell>
        <mxCell id="8mimewBvu1z7pcnI_ByZ-25" value="&lt;b&gt;PC + 1&lt;/b&gt;" style="text;html=1;align=center;verticalAlign=middle;resizable=0;points=[];autosize=1;strokeColor=none;fillColor=none;" parent="1" vertex="1">
          <mxGeometry x="335" y="-170" width="60" height="30" as="geometry" />
        </mxCell>
        <mxCell id="8mimewBvu1z7pcnI_ByZ-27" value="" style="ellipse;whiteSpace=wrap;html=1;" parent="1" vertex="1">
          <mxGeometry x="591" y="-110" width="30" height="100" as="geometry" />
        </mxCell>
        <mxCell id="8mimewBvu1z7pcnI_ByZ-28" value="&lt;b&gt;0&lt;/b&gt;" style="text;html=1;align=center;verticalAlign=middle;resizable=0;points=[];autosize=1;strokeColor=none;fillColor=none;" parent="1" vertex="1">
          <mxGeometry x="591" y="-110" width="30" height="30" as="geometry" />
        </mxCell>
        <mxCell id="8mimewBvu1z7pcnI_ByZ-29" value="&lt;b&gt;1&lt;/b&gt;" style="text;html=1;align=center;verticalAlign=middle;resizable=0;points=[];autosize=1;strokeColor=none;fillColor=none;" parent="1" vertex="1">
          <mxGeometry x="586" y="-47.5" width="30" height="30" as="geometry" />
        </mxCell>
        <mxCell id="8mimewBvu1z7pcnI_ByZ-30" value="&lt;b&gt;MUX&lt;/b&gt;" style="text;html=1;align=center;verticalAlign=middle;resizable=0;points=[];autosize=1;strokeColor=none;fillColor=none;" parent="1" vertex="1">
          <mxGeometry x="581" y="-73" width="50" height="30" as="geometry" />
        </mxCell>
        <mxCell id="8mimewBvu1z7pcnI_ByZ-31" value="&lt;b&gt;Zero&lt;br&gt;Flag&lt;br&gt;&lt;/b&gt;" style="text;html=1;align=center;verticalAlign=middle;resizable=0;points=[];autosize=1;strokeColor=none;fillColor=none;" parent="1" vertex="1">
          <mxGeometry x="797.5" y="295" width="50" height="40" as="geometry" />
        </mxCell>
        <mxCell id="8mimewBvu1z7pcnI_ByZ-34" value="" style="triangle;whiteSpace=wrap;html=1;direction=north;" parent="1" vertex="1">
          <mxGeometry x="830" y="201" width="20" height="40" as="geometry" />
        </mxCell>
        <mxCell id="8mimewBvu1z7pcnI_ByZ-35" value="" style="ellipse;whiteSpace=wrap;html=1;aspect=fixed;direction=south;" parent="1" vertex="1">
          <mxGeometry x="832.5" y="186" width="15" height="15" as="geometry" />
        </mxCell>
        <mxCell id="8mimewBvu1z7pcnI_ByZ-36" value="" style="edgeStyle=none;orthogonalLoop=1;jettySize=auto;html=1;rounded=0;exitX=0.2;exitY=0.1;exitDx=0;exitDy=0;exitPerimeter=0;" parent="1" edge="1">
          <mxGeometry width="100" relative="1" as="geometry">
            <mxPoint x="810" y="300" as="sourcePoint" />
            <mxPoint x="810" y="110" as="targetPoint" />
            <Array as="points" />
          </mxGeometry>
        </mxCell>
        <mxCell id="8mimewBvu1z7pcnI_ByZ-37" value="" style="edgeStyle=none;orthogonalLoop=1;jettySize=auto;html=1;rounded=0;entryX=0;entryY=0.5;entryDx=0;entryDy=0;" parent="1" target="8mimewBvu1z7pcnI_ByZ-34" edge="1">
          <mxGeometry width="100" relative="1" as="geometry">
            <mxPoint x="810" y="281" as="sourcePoint" />
            <mxPoint x="940" y="161" as="targetPoint" />
            <Array as="points">
              <mxPoint x="840" y="281" />
            </Array>
          </mxGeometry>
        </mxCell>
        <mxCell id="8mimewBvu1z7pcnI_ByZ-58" style="edgeStyle=orthogonalEdgeStyle;rounded=0;orthogonalLoop=1;jettySize=auto;html=1;exitX=1;exitY=0.5;exitDx=0;exitDy=0;entryX=0.11;entryY=0.147;entryDx=0;entryDy=0;entryPerimeter=0;" parent="1" source="8mimewBvu1z7pcnI_ByZ-39" target="8mimewBvu1z7pcnI_ByZ-52" edge="1">
          <mxGeometry relative="1" as="geometry" />
        </mxCell>
        <mxCell id="8mimewBvu1z7pcnI_ByZ-39" value="" style="shape=delay;whiteSpace=wrap;html=1;direction=north;" parent="1" vertex="1">
          <mxGeometry x="770" y="65" width="50" height="40" as="geometry" />
        </mxCell>
        <mxCell id="8mimewBvu1z7pcnI_ByZ-41" value="" style="edgeStyle=none;orthogonalLoop=1;jettySize=auto;html=1;rounded=0;entryX=0;entryY=0.25;entryDx=0;entryDy=0;fillColor=#0050ef;strokeColor=#001DBC;exitX=0.925;exitY=0.751;exitDx=0;exitDy=0;exitPerimeter=0;strokeWidth=2;" parent="1" source="obl9XP4yQmIYvm-z3Ed6-8" target="8mimewBvu1z7pcnI_ByZ-39" edge="1">
          <mxGeometry width="100" relative="1" as="geometry">
            <mxPoint x="460" y="180" as="sourcePoint" />
            <mxPoint x="800" y="180" as="targetPoint" />
            <Array as="points">
              <mxPoint x="783" y="180" />
            </Array>
          </mxGeometry>
        </mxCell>
        <mxCell id="8mimewBvu1z7pcnI_ByZ-42" value="" style="edgeStyle=none;orthogonalLoop=1;jettySize=auto;html=1;rounded=0;exitX=0;exitY=0;exitDx=0;exitDy=0;entryX=-0.006;entryY=0.14;entryDx=0;entryDy=0;entryPerimeter=0;" parent="1" source="8mimewBvu1z7pcnI_ByZ-35" target="8mimewBvu1z7pcnI_ByZ-44" edge="1">
          <mxGeometry width="100" relative="1" as="geometry">
            <mxPoint x="830" y="80" as="sourcePoint" />
            <mxPoint x="845" y="120" as="targetPoint" />
            <Array as="points" />
          </mxGeometry>
        </mxCell>
        <mxCell id="8mimewBvu1z7pcnI_ByZ-57" style="edgeStyle=orthogonalEdgeStyle;rounded=0;orthogonalLoop=1;jettySize=auto;html=1;exitX=1;exitY=0.5;exitDx=0;exitDy=0;entryX=0.175;entryY=0.75;entryDx=0;entryDy=0;entryPerimeter=0;" parent="1" source="8mimewBvu1z7pcnI_ByZ-44" target="8mimewBvu1z7pcnI_ByZ-52" edge="1">
          <mxGeometry relative="1" as="geometry" />
        </mxCell>
        <mxCell id="8mimewBvu1z7pcnI_ByZ-44" value="" style="shape=delay;whiteSpace=wrap;html=1;direction=north;" parent="1" vertex="1">
          <mxGeometry x="840" y="65" width="50" height="40" as="geometry" />
        </mxCell>
        <mxCell id="8mimewBvu1z7pcnI_ByZ-45" value="" style="edgeStyle=none;orthogonalLoop=1;jettySize=auto;html=1;rounded=0;entryX=0;entryY=0.75;entryDx=0;entryDy=0;fillColor=#0050ef;strokeColor=#001DBC;strokeWidth=2;" parent="1" target="8mimewBvu1z7pcnI_ByZ-44" edge="1">
          <mxGeometry width="100" relative="1" as="geometry">
            <mxPoint x="460" y="150" as="sourcePoint" />
            <mxPoint x="610" y="60" as="targetPoint" />
            <Array as="points">
              <mxPoint x="670" y="150" />
              <mxPoint x="878" y="152" />
            </Array>
          </mxGeometry>
        </mxCell>
        <mxCell id="8mimewBvu1z7pcnI_ByZ-46" value="&lt;font color=&quot;#0000ff&quot;&gt;&lt;b&gt;Branch-Equal&lt;/b&gt;&lt;/font&gt;" style="text;html=1;align=center;verticalAlign=middle;resizable=0;points=[];autosize=1;strokeColor=none;fillColor=none;" parent="1" vertex="1">
          <mxGeometry x="460" y="156" width="100" height="30" as="geometry" />
        </mxCell>
        <mxCell id="8mimewBvu1z7pcnI_ByZ-50" value="&lt;span style=&quot;border-color: var(--border-color); color: rgb(0, 0, 255);&quot;&gt;&lt;b&gt;Branch-Not-Equal&lt;/b&gt;&lt;/span&gt;" style="text;html=1;align=center;verticalAlign=middle;resizable=0;points=[];autosize=1;strokeColor=none;fillColor=none;" parent="1" vertex="1">
          <mxGeometry x="451" y="126" width="130" height="30" as="geometry" />
        </mxCell>
        <mxCell id="8mimewBvu1z7pcnI_ByZ-52" value="" style="shape=xor;whiteSpace=wrap;html=1;direction=north;" parent="1" vertex="1">
          <mxGeometry x="810" width="60" height="40" as="geometry" />
        </mxCell>
        <mxCell id="8mimewBvu1z7pcnI_ByZ-60" value="" style="endArrow=none;html=1;rounded=0;entryX=0.5;entryY=1;entryDx=0;entryDy=0;exitX=1;exitY=0.5;exitDx=0;exitDy=0;exitPerimeter=0;" parent="1" source="8mimewBvu1z7pcnI_ByZ-52" target="8mimewBvu1z7pcnI_ByZ-27" edge="1">
          <mxGeometry width="50" height="50" relative="1" as="geometry">
            <mxPoint x="840" y="10" as="sourcePoint" />
            <mxPoint x="710" y="20" as="targetPoint" />
            <Array as="points">
              <mxPoint x="840" y="-10" />
            </Array>
          </mxGeometry>
        </mxCell>
        <mxCell id="8mimewBvu1z7pcnI_ByZ-61" value="" style="ellipse;whiteSpace=wrap;html=1;" parent="1" vertex="1">
          <mxGeometry x="970" y="-127.5" width="30" height="100" as="geometry" />
        </mxCell>
        <mxCell id="8mimewBvu1z7pcnI_ByZ-62" value="&lt;b&gt;0&lt;/b&gt;" style="text;html=1;align=center;verticalAlign=middle;resizable=0;points=[];autosize=1;strokeColor=none;fillColor=none;" parent="1" vertex="1">
          <mxGeometry x="970" y="-127.5" width="30" height="30" as="geometry" />
        </mxCell>
        <mxCell id="8mimewBvu1z7pcnI_ByZ-63" value="&lt;b&gt;1&lt;/b&gt;" style="text;html=1;align=center;verticalAlign=middle;resizable=0;points=[];autosize=1;strokeColor=none;fillColor=none;" parent="1" vertex="1">
          <mxGeometry x="960" y="-75" width="30" height="30" as="geometry" />
        </mxCell>
        <mxCell id="8mimewBvu1z7pcnI_ByZ-65" value="" style="edgeStyle=none;orthogonalLoop=1;jettySize=auto;html=1;rounded=0;exitX=0.756;exitY=0.067;exitDx=0;exitDy=0;exitPerimeter=0;" parent="1" source="8mimewBvu1z7pcnI_ByZ-30" edge="1">
          <mxGeometry width="100" relative="1" as="geometry">
            <mxPoint x="630" y="-100" as="sourcePoint" />
            <mxPoint x="970" y="-110" as="targetPoint" />
            <Array as="points">
              <mxPoint x="780" y="-70" />
              <mxPoint x="780" y="-110" />
            </Array>
          </mxGeometry>
        </mxCell>
        <mxCell id="8mimewBvu1z7pcnI_ByZ-66" value="" style="endArrow=classic;html=1;rounded=0;exitX=1.04;exitY=0.121;exitDx=0;exitDy=0;exitPerimeter=0;" parent="1" source="obl9XP4yQmIYvm-z3Ed6-5" edge="1">
          <mxGeometry width="50" height="50" relative="1" as="geometry">
            <mxPoint x="730" y="270" as="sourcePoint" />
            <mxPoint x="970" y="-60" as="targetPoint" />
            <Array as="points">
              <mxPoint x="710" y="255" />
              <mxPoint x="710" y="-60" />
              <mxPoint x="850" y="-60" />
            </Array>
          </mxGeometry>
        </mxCell>
        <mxCell id="8mimewBvu1z7pcnI_ByZ-68" value="&lt;b&gt;MUX&lt;/b&gt;" style="text;html=1;align=center;verticalAlign=middle;resizable=0;points=[];autosize=1;strokeColor=none;fillColor=none;" parent="1" vertex="1">
          <mxGeometry x="960" y="-92.5" width="50" height="30" as="geometry" />
        </mxCell>
        <mxCell id="8mimewBvu1z7pcnI_ByZ-69" value="&lt;b&gt;4-11&lt;/b&gt;" style="text;html=1;align=center;verticalAlign=middle;resizable=0;points=[];autosize=1;strokeColor=none;fillColor=none;" parent="1" vertex="1">
          <mxGeometry x="586" y="230" width="50" height="30" as="geometry" />
        </mxCell>
        <mxCell id="8mimewBvu1z7pcnI_ByZ-70" value="&lt;b&gt;Jump Address&lt;/b&gt;" style="text;html=1;align=center;verticalAlign=middle;resizable=0;points=[];autosize=1;strokeColor=none;fillColor=none;" parent="1" vertex="1">
          <mxGeometry x="830" y="-90" width="110" height="30" as="geometry" />
        </mxCell>
        <mxCell id="8mimewBvu1z7pcnI_ByZ-75" value="" style="endArrow=none;html=1;rounded=0;entryX=0.5;entryY=1;entryDx=0;entryDy=0;fillColor=#0050ef;strokeColor=#001DBC;exitX=0.85;exitY=0.884;exitDx=0;exitDy=0;exitPerimeter=0;strokeWidth=2;" parent="1" source="obl9XP4yQmIYvm-z3Ed6-8" target="8mimewBvu1z7pcnI_ByZ-61" edge="1">
          <mxGeometry width="50" height="50" relative="1" as="geometry">
            <mxPoint x="450" y="210" as="sourcePoint" />
            <mxPoint x="780" y="20" as="targetPoint" />
            <Array as="points">
              <mxPoint x="985" y="212" />
            </Array>
          </mxGeometry>
        </mxCell>
        <mxCell id="8mimewBvu1z7pcnI_ByZ-76" value="&lt;font style=&quot;&quot; color=&quot;#0000ff&quot;&gt;&lt;b&gt;Jump&lt;/b&gt;&lt;/font&gt;" style="text;html=1;align=center;verticalAlign=middle;resizable=0;points=[];autosize=1;strokeColor=none;fillColor=none;" parent="1" vertex="1">
          <mxGeometry x="448" y="186" width="60" height="30" as="geometry" />
        </mxCell>
        <mxCell id="8mimewBvu1z7pcnI_ByZ-77" value="&lt;b style=&quot;border-color: var(--border-color);&quot;&gt;Jump Address&lt;/b&gt;" style="text;html=1;align=center;verticalAlign=middle;resizable=0;points=[];autosize=1;strokeColor=none;fillColor=none;" parent="1" vertex="1">
          <mxGeometry x="490" y="230" width="110" height="30" as="geometry" />
        </mxCell>
        <mxCell id="8mimewBvu1z7pcnI_ByZ-79" value="" style="edgeStyle=none;orthogonalLoop=1;jettySize=auto;html=1;rounded=0;entryX=0;entryY=0.5;entryDx=0;entryDy=0;" parent="1" target="obl9XP4yQmIYvm-z3Ed6-3" edge="1">
          <mxGeometry width="100" relative="1" as="geometry">
            <mxPoint x="1000" y="-70" as="sourcePoint" />
            <mxPoint x="1150" y="-80" as="targetPoint" />
            <Array as="points">
              <mxPoint x="1110" y="-70" />
              <mxPoint x="1110" y="-240" />
              <mxPoint x="40" y="-240" />
              <mxPoint x="40" y="335" />
            </Array>
          </mxGeometry>
        </mxCell>
        <mxCell id="8mimewBvu1z7pcnI_ByZ-84" value="&lt;b&gt;PC&lt;/b&gt;" style="text;html=1;align=center;verticalAlign=middle;resizable=0;points=[];autosize=1;strokeColor=none;fillColor=none;" parent="1" vertex="1">
          <mxGeometry x="90" y="265" width="40" height="30" as="geometry" />
        </mxCell>
        <mxCell id="8mimewBvu1z7pcnI_ByZ-85" value="" style="edgeStyle=none;orthogonalLoop=1;jettySize=auto;html=1;rounded=0;entryX=0.094;entryY=0.208;entryDx=0;entryDy=0;entryPerimeter=0;" parent="1" target="8mimewBvu1z7pcnI_ByZ-17" edge="1">
          <mxGeometry width="100" relative="1" as="geometry">
            <mxPoint x="180" y="-170" as="sourcePoint" />
            <mxPoint x="180" y="-170" as="targetPoint" />
            <Array as="points" />
          </mxGeometry>
        </mxCell>
        <mxCell id="8mimewBvu1z7pcnI_ByZ-86" value="&lt;b&gt;1&lt;/b&gt;" style="text;html=1;align=center;verticalAlign=middle;resizable=0;points=[];autosize=1;strokeColor=none;fillColor=none;" parent="1" vertex="1">
          <mxGeometry x="150" y="-187.5" width="30" height="30" as="geometry" />
        </mxCell>
        <mxCell id="8mimewBvu1z7pcnI_ByZ-87" value="&lt;b&gt;PC&lt;/b&gt;" style="text;html=1;align=center;verticalAlign=middle;resizable=0;points=[];autosize=1;strokeColor=none;fillColor=none;" parent="1" vertex="1">
          <mxGeometry x="145" y="-90" width="40" height="30" as="geometry" />
        </mxCell>
        <mxCell id="8mimewBvu1z7pcnI_ByZ-88" value="&lt;b&gt;Data &lt;br&gt;Memory&lt;/b&gt;" style="text;html=1;align=center;verticalAlign=middle;resizable=0;points=[];autosize=1;strokeColor=#82b366;fillColor=#d5e8d4;" parent="1" vertex="1">
          <mxGeometry x="1030" y="347" width="70" height="40" as="geometry" />
        </mxCell>
        <mxCell id="8mimewBvu1z7pcnI_ByZ-90" value="&lt;b&gt;Branch&lt;br&gt;&amp;nbsp;Offset&lt;/b&gt;" style="text;html=1;align=center;verticalAlign=middle;resizable=0;points=[];autosize=1;strokeColor=none;fillColor=none;" parent="1" vertex="1">
          <mxGeometry x="80" y="10" width="60" height="40" as="geometry" />
        </mxCell>
        <mxCell id="8mimewBvu1z7pcnI_ByZ-91" value="" style="endArrow=none;html=1;rounded=0;" parent="1" edge="1">
          <mxGeometry width="50" height="50" relative="1" as="geometry">
            <mxPoint x="190" y="300" as="sourcePoint" />
            <mxPoint x="210" y="270" as="targetPoint" />
          </mxGeometry>
        </mxCell>
        <mxCell id="8mimewBvu1z7pcnI_ByZ-92" value="&lt;b&gt;8&lt;/b&gt;" style="text;html=1;align=center;verticalAlign=middle;resizable=0;points=[];autosize=1;strokeColor=none;fillColor=none;" parent="1" vertex="1">
          <mxGeometry x="190" y="285" width="30" height="30" as="geometry" />
        </mxCell>
        <mxCell id="8mimewBvu1z7pcnI_ByZ-93" value="&lt;b&gt;Instruction&lt;br&gt;Memory&lt;br&gt;&lt;/b&gt;" style="text;html=1;align=center;verticalAlign=middle;resizable=0;points=[];autosize=1;strokeColor=#82b366;fillColor=#d5e8d4;" parent="1" vertex="1">
          <mxGeometry x="220" y="448" width="90" height="40" as="geometry" />
        </mxCell>
        <mxCell id="8mimewBvu1z7pcnI_ByZ-94" value="&lt;b&gt;Program&lt;br&gt;Counter&lt;/b&gt;" style="text;html=1;align=center;verticalAlign=middle;resizable=0;points=[];autosize=1;strokeColor=#82b366;fillColor=#d5e8d4;" parent="1" vertex="1">
          <mxGeometry x="65" y="447" width="70" height="40" as="geometry" />
        </mxCell>
        <mxCell id="8mimewBvu1z7pcnI_ByZ-95" value="&lt;b&gt;Control Unit&lt;br&gt;&lt;/b&gt;" style="text;html=1;align=center;verticalAlign=middle;resizable=0;points=[];autosize=1;strokeColor=#82b366;fillColor=#d5e8d4;" parent="1" vertex="1">
          <mxGeometry x="358" y="105" width="90" height="30" as="geometry" />
        </mxCell>
        <mxCell id="8mimewBvu1z7pcnI_ByZ-96" value="" style="endArrow=none;html=1;rounded=0;exitX=0.592;exitY=1.005;exitDx=0;exitDy=0;exitPerimeter=0;fillColor=#0050ef;strokeColor=#001DBC;strokeWidth=2;" parent="1" source="obl9XP4yQmIYvm-z3Ed6-8" target="obl9XP4yQmIYvm-z3Ed6-13" edge="1">
          <mxGeometry width="50" height="50" relative="1" as="geometry">
            <mxPoint x="600" y="360" as="sourcePoint" />
            <mxPoint x="650" y="310" as="targetPoint" />
            <Array as="points">
              <mxPoint x="480" y="241" />
            </Array>
          </mxGeometry>
        </mxCell>
        <mxCell id="8mimewBvu1z7pcnI_ByZ-97" value="&lt;font color=&quot;#0000ff&quot;&gt;&lt;b&gt;RegWrite&lt;/b&gt;&lt;/font&gt;" style="text;html=1;align=center;verticalAlign=middle;resizable=0;points=[];autosize=1;strokeColor=none;fillColor=none;" parent="1" vertex="1">
          <mxGeometry x="425" y="216" width="80" height="30" as="geometry" />
        </mxCell>
        <mxCell id="8mimewBvu1z7pcnI_ByZ-98" value="" style="endArrow=none;html=1;rounded=0;exitX=1;exitY=0.5;exitDx=0;exitDy=0;entryX=0.5;entryY=1;entryDx=0;entryDy=0;fillColor=#0050ef;strokeColor=#001DBC;strokeWidth=2;" parent="1" source="obl9XP4yQmIYvm-z3Ed6-8" target="ntWYbjyDZt9TWFbMhZnc-25" edge="1">
          <mxGeometry width="50" height="50" relative="1" as="geometry">
            <mxPoint x="600" y="240" as="sourcePoint" />
            <mxPoint x="650" y="190" as="targetPoint" />
            <Array as="points">
              <mxPoint x="660" y="120" />
              <mxPoint x="660" y="480" />
              <mxPoint x="825" y="480" />
            </Array>
          </mxGeometry>
        </mxCell>
        <mxCell id="8mimewBvu1z7pcnI_ByZ-99" value="&lt;font color=&quot;#0000ff&quot;&gt;&lt;b&gt;ALU Control Bits&lt;/b&gt;&lt;/font&gt;" style="text;html=1;align=center;verticalAlign=middle;resizable=0;points=[];autosize=1;strokeColor=none;fillColor=none;rotation=0;" parent="1" vertex="1">
          <mxGeometry x="456" y="96" width="120" height="30" as="geometry" />
        </mxCell>
        <mxCell id="8mimewBvu1z7pcnI_ByZ-100" value="&lt;b&gt;ALU OP&lt;/b&gt;" style="text;html=1;align=center;verticalAlign=middle;resizable=0;points=[];autosize=1;strokeColor=none;fillColor=none;" parent="1" vertex="1">
          <mxGeometry x="780" y="410" width="70" height="30" as="geometry" />
        </mxCell>
        <mxCell id="8mimewBvu1z7pcnI_ByZ-102" value="&lt;b style=&quot;&quot;&gt;&lt;font style=&quot;font-size: 11px;&quot;&gt;ALU&lt;/font&gt;&lt;/b&gt;" style="text;html=1;align=center;verticalAlign=middle;resizable=0;points=[];autosize=1;strokeColor=#82b366;fillColor=#d5e8d4;" parent="1" vertex="1">
          <mxGeometry x="805" y="358" width="50" height="30" as="geometry" />
        </mxCell>
        <mxCell id="8mimewBvu1z7pcnI_ByZ-103" value="" style="endArrow=none;html=1;rounded=0;entryX=0.45;entryY=-0.092;entryDx=0;entryDy=0;entryPerimeter=0;exitX=0.975;exitY=0.359;exitDx=0;exitDy=0;exitPerimeter=0;fillColor=#0050ef;strokeColor=#001DBC;strokeWidth=2;" parent="1" source="obl9XP4yQmIYvm-z3Ed6-8" target="ntWYbjyDZt9TWFbMhZnc-32" edge="1">
          <mxGeometry width="50" height="50" relative="1" as="geometry">
            <mxPoint x="600" y="110" as="sourcePoint" />
            <mxPoint x="650" y="60" as="targetPoint" />
            <Array as="points">
              <mxPoint x="1066" y="86" />
            </Array>
          </mxGeometry>
        </mxCell>
        <mxCell id="8mimewBvu1z7pcnI_ByZ-104" value="" style="endArrow=none;html=1;rounded=0;entryX=0.588;entryY=0.942;entryDx=0;entryDy=0;entryPerimeter=0;fillColor=#0050ef;strokeColor=#001DBC;strokeWidth=2;" parent="1" target="ntWYbjyDZt9TWFbMhZnc-33" edge="1">
          <mxGeometry width="50" height="50" relative="1" as="geometry">
            <mxPoint x="370" y="220" as="sourcePoint" />
            <mxPoint x="650" y="190" as="targetPoint" />
            <Array as="points">
              <mxPoint x="160" y="221" />
              <mxPoint x="160" y="520" />
              <mxPoint x="1067" y="520" />
            </Array>
          </mxGeometry>
        </mxCell>
        <mxCell id="8mimewBvu1z7pcnI_ByZ-105" value="&lt;b&gt;&lt;font color=&quot;#0000ff&quot;&gt;MemRead&lt;/font&gt;&lt;/b&gt;" style="text;html=1;align=center;verticalAlign=middle;resizable=0;points=[];autosize=1;strokeColor=none;fillColor=none;" parent="1" vertex="1">
          <mxGeometry x="451" y="60" width="80" height="30" as="geometry" />
        </mxCell>
        <mxCell id="8mimewBvu1z7pcnI_ByZ-106" value="&lt;b&gt;&lt;font color=&quot;#0000ff&quot;&gt;MemWrite&lt;/font&gt;&lt;/b&gt;" style="text;html=1;align=center;verticalAlign=middle;resizable=0;points=[];autosize=1;strokeColor=none;fillColor=none;" parent="1" vertex="1">
          <mxGeometry x="280" y="190" width="80" height="30" as="geometry" />
        </mxCell>
        <mxCell id="8mimewBvu1z7pcnI_ByZ-107" value="" style="endArrow=none;html=1;rounded=0;entryX=0.5;entryY=0;entryDx=0;entryDy=0;exitX=0.013;exitY=-0.125;exitDx=0;exitDy=0;exitPerimeter=0;fillColor=#0050ef;strokeColor=#001DBC;strokeWidth=2;" parent="1" source="8mimewBvu1z7pcnI_ByZ-105" target="ntWYbjyDZt9TWFbMhZnc-38" edge="1">
          <mxGeometry width="50" height="50" relative="1" as="geometry">
            <mxPoint x="600" y="240" as="sourcePoint" />
            <mxPoint x="650" y="190" as="targetPoint" />
            <Array as="points">
              <mxPoint x="1265" y="56" />
            </Array>
          </mxGeometry>
        </mxCell>
        <mxCell id="8mimewBvu1z7pcnI_ByZ-108" value="&lt;b&gt;&lt;font color=&quot;#0000ff&quot;&gt;MemToReg&lt;/font&gt;&lt;/b&gt;" style="text;html=1;align=center;verticalAlign=middle;resizable=0;points=[];autosize=1;strokeColor=none;fillColor=none;" parent="1" vertex="1">
          <mxGeometry x="441" y="30" width="90" height="30" as="geometry" />
        </mxCell>
        <mxCell id="8mimewBvu1z7pcnI_ByZ-109" value="" style="endArrow=none;html=1;rounded=0;entryX=0.5;entryY=0;entryDx=0;entryDy=0;exitX=0.783;exitY=0.076;exitDx=0;exitDy=0;exitPerimeter=0;strokeWidth=2;fillColor=#0050ef;strokeColor=#001DBC;" parent="1" source="obl9XP4yQmIYvm-z3Ed6-8" target="ntWYbjyDZt9TWFbMhZnc-17" edge="1">
          <mxGeometry width="50" height="50" relative="1" as="geometry">
            <mxPoint x="600" y="240" as="sourcePoint" />
            <mxPoint x="650" y="190" as="targetPoint" />
            <Array as="points">
              <mxPoint x="735" y="17" />
            </Array>
          </mxGeometry>
        </mxCell>
        <mxCell id="8mimewBvu1z7pcnI_ByZ-110" value="&lt;b&gt;&lt;font color=&quot;#0000ff&quot;&gt;ALUSrc&lt;/font&gt;&lt;/b&gt;" style="text;html=1;align=center;verticalAlign=middle;resizable=0;points=[];autosize=1;strokeColor=none;fillColor=none;" parent="1" vertex="1">
          <mxGeometry x="420" y="-10" width="70" height="30" as="geometry" />
        </mxCell>
        <mxCell id="8mimewBvu1z7pcnI_ByZ-111" value="" style="endArrow=none;html=1;rounded=0;entryX=0.5;entryY=1;entryDx=0;entryDy=0;exitX=0.05;exitY=0.284;exitDx=0;exitDy=0;exitPerimeter=0;fillColor=#0050ef;strokeColor=#001DBC;strokeWidth=2;" parent="1" source="obl9XP4yQmIYvm-z3Ed6-8" target="ntWYbjyDZt9TWFbMhZnc-6" edge="1">
          <mxGeometry width="50" height="50" relative="1" as="geometry">
            <mxPoint x="20" y="30" as="sourcePoint" />
            <mxPoint x="640" y="290" as="targetPoint" />
            <Array as="points">
              <mxPoint x="20" y="69" />
              <mxPoint x="20" y="600" />
              <mxPoint x="365" y="600" />
            </Array>
          </mxGeometry>
        </mxCell>
        <mxCell id="8mimewBvu1z7pcnI_ByZ-112" value="&lt;b&gt;&lt;font color=&quot;#0000ff&quot;&gt;RegDst&lt;/font&gt;&lt;/b&gt;" style="text;html=1;align=center;verticalAlign=middle;resizable=0;points=[];autosize=1;strokeColor=none;fillColor=none;" parent="1" vertex="1">
          <mxGeometry x="280" y="40" width="70" height="30" as="geometry" />
        </mxCell>
        <mxCell id="WNGvE4OBSmSfp8DGffb1-1" value="A" style="text;html=1;align=center;verticalAlign=middle;resizable=0;points=[];autosize=1;strokeColor=none;fillColor=none;" vertex="1" parent="1">
          <mxGeometry x="797.5" y="335" width="30" height="30" as="geometry" />
        </mxCell>
        <mxCell id="WNGvE4OBSmSfp8DGffb1-2" value="B" style="text;html=1;align=center;verticalAlign=middle;resizable=0;points=[];autosize=1;strokeColor=none;fillColor=none;" vertex="1" parent="1">
          <mxGeometry x="797.5" y="388" width="30" height="30" as="geometry" />
        </mxCell>
      </root>
    </mxGraphModel>
  </diagram>
  <diagram id="Kwhya2zTeHVyRo5bH9dz" name="Page-2">
    <mxGraphModel dx="1050" dy="541" grid="1" gridSize="10" guides="1" tooltips="1" connect="1" arrows="1" fold="1" page="1" pageScale="1" pageWidth="850" pageHeight="1100" math="0" shadow="0">
      <root>
        <mxCell id="0" />
        <mxCell id="1" parent="0" />
      </root>
    </mxGraphModel>
  </diagram>
</mxfile>
